<svg xmlns="http://www.w3.org/2000/svg" xml:space="preserve" id="svg2" x="0" y="0" style="enable-background:new 0 0 30 30" version="1.1" viewBox="0 0 30 30"><g id="layer1" transform="translate(0 -1022.3622)"><path id="path16617-6-6" d="M358.9 969.8c0 7.5-6.1 13.6-13.6 13.6s-13.6-6.1-13.6-13.6 6.1-13.6 13.6-13.6 13.6 6 13.6 13.6z" style="fill:#1a1a1a;stroke:#d4d4d4;stroke-miterlimit:3.8919"/><path id="path16623-6-2" d="M345.3 957.9v11.9" class="st1"/><path id="path16623-4-2-0" d="M357.2 969.8h-1.7" class="st1"/><path id="path16623-4-3-9-0" d="M345.3 981.6v-2" style="fill:#1a1a1a;stroke:#d4d4d4;stroke-width:1"/><path id="path16623-4-3-4-1-0" d="M333.4 969.8h11.9" class="st1"/><path id="path9518-0-7" d="m15 1026-11.2 9.9H6v12.8h6.7v-7.6h4.7v7.6H24v-12.8h2.2L15 1026z" style="fill:none"/><path id="path21695-0" d="M27.5 1026.1c-.1 0-.1 0-.2.1l-2.9 1.7-.5 2H3.4c-.4.1-.8.1-.8.7l2.5 9.7c.1.5.2.6.7.7l15.2 2.1v.8H7.4c-.3 0-.4.2-.5.3-.8.3-1.4 1.1-1.4 2.1 0 1.2 1 2.2 2.2 2.2s2.2-1 2.2-2.2c0-.4-.1-.7-.2-1H18c-.2.3-.3.7-.3 1.1 0 1.2 1 2.2 2.2 2.2 1.2 0 2.2-1 2.2-2.2 0-.4-.1-.8-.3-1.1h.3c.2-.1.4-.2.4-.7v-2.2l3.1-13.7 2.2-1.3c.7-.7.2-1.3-.3-1.3zm-23.2 5.1h2.2v2.7H5l-.7-2.7zm3.2 0h3.4v2.7H7.5v-2.7zm4.4 0h3.4v2.7h-3.4v-2.7zm4.5 0h3.4v2.7h-3.4v-2.7zm4.4 0h2.8l-.6 2.7h-2.2v-2.7zM5.3 1035h1.2v3h-.4l-.8-3zm2.2 0h3.4v3H7.5v-3zm4.4 0h3.4v3h-3.4v-3zm4.5 0h3.4v3h-3.4v-3zm4.4 0h1.9l-.7 3h-1.2v-3zm-14.4 3.9h.1v.5l-.1-.5zm1.1 0h3.4v1.3l-3.4-.5v-.8zm4.4 0h3.4v1.9l-3.4-.5v-1.4zm4.5 0h3.4v2.5l-3.4-.5v-2zm4.4 0h1l-.6 2.7h-.3l-.1-2.7zm-12.7 6.4c.4.2.7.5.7 1 0 .6-.5 1.1-1.1 1.1s-1.1-.5-1.1-1.1c0-.5.3-.8.7-1h.8zm11.8 0c.6 0 1.1.5 1.1 1.1s-.5 1.1-1.1 1.1-1.1-.5-1.1-1.1c.1-.6.5-1 1.1-1.1z" style="fill:#fff"/></g></svg>