<?xml version="1.0" encoding="utf-8"?>
<!-- Generator: Adobe Illustrator 26.0.3, SVG Export Plug-In . SVG Version: 6.00 Build 0)  -->
<svg version="1.1"
	 id="svg2" xmlns:cc="http://creativecommons.org/ns#" xmlns:dc="http://purl.org/dc/elements/1.1/" xmlns:inkscape="http://www.inkscape.org/namespaces/inkscape" xmlns:rdf="http://www.w3.org/1999/02/22-rdf-syntax-ns#" xmlns:sodipodi="http://sodipodi.sourceforge.net/DTD/sodipodi-0.dtd" xmlns:svg="http://www.w3.org/2000/svg"
	 xmlns="http://www.w3.org/2000/svg" xmlns:xlink="http://www.w3.org/1999/xlink" x="0px" y="0px" viewBox="0 0 30 30"
	 style="width:45px; height:70px" xml:space="preserve">
<style type="text/css">
	.st0{fill:#1A1A1A;stroke:#D4D4D4;stroke-miterlimit:3.8919;}
	.st1{fill:#1A1A1A;stroke:#D4D4D4;}
	.st2{fill:#FFFFFF;}
</style>
<sodipodi:namedview  bordercolor="#666666" borderopacity="1.0" id="base" inkscape:current-layer="layer1" inkscape:cx="15.344828" inkscape:cy="14.482759" inkscape:document-units="px" inkscape:pageopacity="0.0" inkscape:pageshadow="2" inkscape:window-height="1029" inkscape:window-maximized="0" inkscape:window-width="656" inkscape:window-x="0" inkscape:window-y="19" inkscape:zoom="10.276087" pagecolor="#ffffff" showgrid="false">
	</sodipodi:namedview>
<g id="layer1" transform="translate(0,-1022.3622)" inkscape:groupmode="layer" inkscape:label="Capa 1">
	
		<path id="path16617-6-6" sodipodi:cx="15.16226" sodipodi:cy="16.56851" sodipodi:rx="14.008413" sodipodi:ry="14.008413" sodipodi:type="arc" class="st0" d="
		M358.9,969.8c0,7.5-6.1,13.6-13.6,13.6s-13.6-6.1-13.6-13.6s6.1-13.6,13.6-13.6S358.9,962.2,358.9,969.8z"/>
	<path id="path16623-6-2" inkscape:connector-curvature="0" inkscape:transform-center-y="-5.9314904" class="st1" d="M345.3,957.9
		v11.9l0,0"/>
	<path id="path16623-4-2-0" inkscape:connector-curvature="0" inkscape:transform-center-x="-0.854382" class="st1" d="M357.2,969.8
		h-1.7l0,0"/>
	<path id="path16623-4-3-9-0" inkscape:connector-curvature="0" inkscape:transform-center-y="1.0091015" class="st1" d="
		M345.3,981.6v-2l0,0"/>
	<path id="path16623-4-3-4-1-0" inkscape:connector-curvature="0" inkscape:transform-center-x="5.9315" class="st1" d="
		M333.4,969.8h11.9l0,0"/>
	<path id="path21695-0" inkscape:connector-curvature="0" class="st2" d="M27.5,1026.1c-0.1,0-0.1,0-0.2,0.1l-2.9,1.7l-0.5,2H3.4
		c-0.4,0.1-0.8,0.1-0.8,0.7l2.5,9.7c0.1,0.5,0.2,0.6,0.7,0.7l15.2,2.1v0.8H7.4c-0.3,0-0.4,0.2-0.5,0.3c-0.8,0.3-1.4,1.1-1.4,2.1
		c0,1.2,1,2.2,2.2,2.2s2.2-1,2.2-2.2c0-0.4-0.1-0.7-0.2-1H18c-0.2,0.3-0.3,0.7-0.3,1.1c0,1.2,1,2.2,2.2,2.2s2.2-1,2.2-2.2
		c0-0.4-0.1-0.8-0.3-1.1h0.3c0.2-0.1,0.4-0.2,0.4-0.7v-2.2l3.1-13.7l2.2-1.3C28.5,1026.7,28,1026.1,27.5,1026.1L27.5,1026.1z
		 M4.3,1031.2h2.2v2.7H5L4.3,1031.2z M7.5,1031.2h3.4v2.7H7.5V1031.2z M11.9,1031.2h3.4v2.7h-3.4V1031.2z M16.4,1031.2h3.4v2.7h-3.4
		C16.4,1033.9,16.4,1031.2,16.4,1031.2z M20.8,1031.2h2.8l-0.6,2.7h-2.2C20.8,1033.9,20.8,1031.2,20.8,1031.2z M5.3,1035h1.2v3H6.1
		L5.3,1035z M7.5,1035h3.4v3H7.5V1035z M11.9,1035h3.4v3h-3.4V1035z M16.4,1035h3.4v3h-3.4C16.4,1037.9,16.4,1035,16.4,1035z
		 M20.8,1035h1.9l-0.7,3h-1.2C20.8,1037.9,20.8,1035,20.8,1035z M6.4,1038.9L6.4,1038.9l0.1,0.5L6.4,1038.9z M7.5,1038.9h3.4v1.3
		l-3.4-0.5C7.5,1039.8,7.5,1038.9,7.5,1038.9z M11.9,1038.9h3.4v1.9l-3.4-0.5V1038.9L11.9,1038.9z M16.4,1038.9h3.4v2.5l-3.4-0.5
		V1038.9z M20.8,1038.9h1l-0.6,2.7h-0.3L20.8,1038.9L20.8,1038.9z M8.1,1045.3c0.4,0.2,0.7,0.5,0.7,1c0,0.6-0.5,1.1-1.1,1.1
		s-1.1-0.5-1.1-1.1c0-0.5,0.3-0.8,0.7-1H8.1L8.1,1045.3z M19.9,1045.3L19.9,1045.3c0.6,0,1.1,0.5,1.1,1.1s-0.5,1.1-1.1,1.1
		s-1.1-0.5-1.1-1.1C18.9,1045.8,19.3,1045.4,19.9,1045.3L19.9,1045.3z"/>
</g>
</svg>
