<?xml version="1.0" encoding="utf-8"?>
<!-- Generator: Adobe Illustrator 24.3.0, SVG Export Plug-In . SVG Version: 6.00 Build 0)  -->
<svg version="1.1" id="Слой_1" xmlns="http://www.w3.org/2000/svg" xmlns:xlink="http://www.w3.org/1999/xlink" x="0px" y="0px"
	 viewBox="0 0 1184 1080" style="enable-background:new 0 0 1184 1080;" xml:space="preserve">
<style type="text/css">
	.st0{fill:#FFFFFF;}
</style>
<g transform="translate(0.000000,1080.000000) scale(0.100000,-0.100000)">
	<path class="st0" d="M6703,9370c-43-38-89-82-103-97c-14-16-61-69-106-118c-115-128-283-339-326-410c-20-33-44-84-53-113
		c-23-70-8-128,44-175c43-39,118-74,130-61c4,5,25,59,46,119c69,201,128,318,348,697C6833,9472,6835,9489,6703,9370z"/>
	<path class="st0" d="M6220,9221c-8-9-45-50-81-91s-99-120-141-175c-266-355-324-509-242-642c17-27,36-48,43-48c8,0,23,33,37,83
		c13,46,38,120,56,165c33,86,206,432,254,508c25,40,73,140,95,196C6251,9244,6241,9246,6220,9221z"/>
	<path class="st0" d="M6954,9208c-59-69-154-187-154-192c0-3-52-77-116-164c-149-200-189-281-189-377c0-72,25-145,49-145
		c6,0,27,44,46,98c38,105,141,314,239,482c61,106,161,299,161,313S6973,9230,6954,9208z"/>
	<path class="st0" d="M5711,8845c-40-60-97-159-127-220c-90-181-101-297-34-376c33-40,31-45,59,103c12,59,48,185,82,280
		C5815,8984,5817,9005,5711,8845z"/>
	<path class="st0" d="M6919,8753c-74-76-153-167-177-202c-41-62-72-142-72-187c0-30,17-74,29-74c5,0,31,44,58,98
		c58,113,116,211,225,376c43,65,77,120,75,122S6993,8828,6919,8753z"/>
	<path class="st0" d="M7070,8525c-79-99-122-188-122-251c0-48,15-76,31-58c5,5,14,27,21,49s42,102,77,178s63,143,60,150
		C7135,8599,7105,8568,7070,8525z"/>
	<path class="st0" d="M5435,8544c-24-58-55-164-55-190c0-32,21-74,37-74c9,0,13,15,13,53c0,28,9,94,19,145
		C5468,8575,5461,8607,5435,8544z"/>
	<path class="st0" d="M7163,8272c-43-63-65-119-58-143c10-30,26-18,40,27c7,21,24,65,39,96c14,31,26,59,26,62
		C7210,8331,7191,8315,7163,8272z"/>
	<path class="st0" d="M5397,8096c-4-10-5-21-2-24c9-9,17,6,13,25C5405,8114,5404,8114,5397,8096z"/>
	<path class="st0" d="M7127,7924c-4-4-7-58-7-120c0-122-14-242-34-302l-13-37h-69c-38,1-115,5-171,9c-121,10-131,1-45-41
		c49-24,69-28,142-28c47,0,100,4,118,8l32,9v-69c0-131-3-136-97-205c-46-34-86-71-89-83c-6-23,83-216,103-222c14-5,4,45-27,128
		l-22,59l65,69c85,90,109,151,109,275c0,72,4,98,21,130c16,31,22,65,25,140C7174,7767,7148,7944,7127,7924z"/>
	<path class="st0" d="M5883,7743c-10-27,112-136,182-162c106-40,260-46,260-11c0,18-61,48-218,106c-64,25-140,53-167,64
		C5893,7758,5889,7759,5883,7743z"/>
	<path class="st0" d="M5132,7573c-53-174-65-360-31-465c17-52,29-48,29,10c0,26,9,150,21,275C5174,7642,5168,7695,5132,7573z"/>
	<path class="st0" d="M5480,7380c0-6,14-38,30-71c69-136,121-364,106-460c-8-53,19-54,34-1c11,39,50,283,50,317c0,12-41,63-98,123
		C5513,7382,5480,7407,5480,7380z"/>
	<path class="st0" d="M6925,6540c-11-19-35-71-55-116c-39-86-83-155-122-191c-83-77-220-88-455-35c-140,32-223,40-223,23
		c0-11,259-60,390-74c59-6,139-7,183-3c75,8,81,10,119,49c75,77,135,179,172,294C6957,6557,6951,6588,6925,6540z"/>
	<path class="st0" d="M4081,6289c-274-31-533-120-705-243c-94-67-200-185-238-267c-37-78-24-74-158-44c-141,32-408-3-425-55
		c-6-20,8-65,24-75c21-12,51,5,51,30c0,22,3,23,124,30c177,10,279,1,474-42c38-9,25,18-18,34c-25,10-40,22-40,33
		c0,26,122,135,232,207c218,143,488,240,808,290c84,13,175,17,337,18c123,0,223,3,223,7s-19,12-42,18c-24,6-56,15-73,20
		C4539,6286,4234,6307,4081,6289z"/>
	<path class="st0" d="M6842,5865c-29-8-63-20-75-26c-39-20-107-64-107-69c0-3,78-5,173-5c147-1,184-4,256-23c149-41,274-110,415-231
		c63-53,89-58,58-10c-69,110-206,238-322,301C7116,5870,6952,5896,6842,5865z"/>
	<path class="st0" d="M5143,5728c-6-13-22-61-37-108c-31-100-60-155-99-184c-26-19-42-21-160-20c-123,0-145,4-312,46
		c-99,26-288,67-420,92c-132,24-252,49-267,55c-23,9-28,8-28-4c0-8,5-15,10-15c6,0,111-36,233-81c488-177,677-230,956-263l105-13
		l22,24c78,84,108,273,63,406C5179,5753,5162,5769,5143,5728z"/>
	<path class="st0" d="M6503,5429c10-170,60-366,100-391c21-13,267-9,396,7c108,14,333,57,499,96c75,18,66,33-15,25
		c-119-11-615-17-683-9l-65,8l-59,105c-108,192-153,264-166,268C6499,5542,6498,5520,6503,5429z"/>
	<path class="st0" d="M8072,5480c-127-13-323-58-345-79c-4-4,106-8,245-8c355,0,597-36,843-125c150-54,150-54,148,5
		c-1,26-7,54-13,62c-13,16-192,77-290,99C8479,5476,8223,5496,8072,5480z"/>
	<path class="st0" d="M3860,5249c-137-11-415-46-509-65c-73-14-171-58-171-77c0-10,21-9,215,15c135,16,688,16,830,0
		c510-59,914-166,1439-381c55-23,102-38,105-35c15,15-206,174-349,252C5006,5184,4421,5293,3860,5249z"/>
	<path class="st0" d="M1035,5008c-11-58-1-546,11-558c6-6,74-18,150-26c91-10,144-20,154-30c21-21,24-241,11-846
		c-12-494-11-498,9-538c19-37,23-40,53-36c18,3,140,13,272,22c218,14,242,18,258,36c16,19,17,66,17,680v660l33-5c17-3,90-11,161-18
		c108-10,129-10,137,2c10,16,12,448,3,473c-4,9-14,21-24,26c-9,5-152,28-316,50c-435,59-823,118-901,135
		C1045,5039,1040,5035,1035,5008z"/>
	<path class="st0" d="M7245,4973c-321-26-617-103-858-223c-168-84-245-147-139-114c91,28,328,83,447,103c469,79,979,92,1409,36
		c103-14,114-13,184,5c76,20,89,26,80,35c-10,10-322,86-452,110C7673,4969,7422,4988,7245,4973z"/>
	<path class="st0" d="M10680,4830c-96-15-196-30-222-34l-47-7l-29-77c-16-42-49-137-73-209c-24-73-46-133-50-133
		c-6,0-95,237-120,318c-7,23-17,46-23,51c-11,9-63,5-366-25c-117-12-158-19-167-31c-8-11-9-20-3-28c5-6,7-20,4-31
		c-3-12,15-56,47-114c28-52,107-203,175-335l123-241l-180-349c-100-193-185-354-190-359c-5-6-9,61-9,167c0,170-1,177-22,188
		c-14,8-85,10-232,8l-211-4l-3,63l-3,62h32c101,0,375,24,381,33c10,16,0,319-11,330c-8,8-149,0-343-20l-58-6v70v70l212,12
		c117,7,218,17,225,23c10,8,13,63,13,226v215l-91-7c-50-4-168-16-263-27c-94-11-267-30-383-43c-117-12-216-26-220-30
		c-5-4-9-309-11-677c-2-642-2-669,16-687c17-17,43-20,233-27c118-4,326-12,462-18c137-7,254-9,260-5s16,3,22-1c5-5,69-11,140-15
		c72-3,178-12,237-18c90-9,110-9,124,3c26,21,88,157,129,280c20,60,40,109,44,109s38-89,76-197c37-109,71-205,76-214
		c6-12,54-18,269-32c277-18,290-17,290,26c0,22-138,342-284,660l-96,208l89,202c226,516,281,647,281,670c0,17-7,26-22,31
		C10878,4861,10884,4862,10680,4830z"/>
	<path class="st0" d="M2377,4645c-4-9-7-346-7-749c0-847-10-771,101-761c150,13,797,37,1067,40c292,3,294,3,319,26
		c25,24,104,179,138,272c22,58,15,68,107-140l62-142l456,6c336,4,463,9,487,18c31,13,48,49,68,148l5,27h150h149l10-37
		c5-21,15-57,21-80c6-24,19-47,30-53s110-10,242-10c176,0,228,3,243,14c19,13,17,20-39,192c-32,97-68,214-81,258
		c-12,45-36,114-54,155c-17,40-31,81-31,90c0,10-35,122-78,250c-53,158-84,237-97,243c-24,14-596,31-609,18c-12-12-153-446-266-822
		c-79-259-95-305-105-290c-24,33-325,522-325,527c0,6,256,415,314,501c53,79,57,99,20,108c-26,7-338,25-432,26h-53l-54-112
		c-29-62-60-131-69-153c-21-49-17-53-97,135c-34,80-64,148-68,152c-8,9-426,40-478,36c-38-3-38-3-35-43c4-40,65-158,255-490l80-139
		l-19-32c-10-18-91-156-179-307l-160-274l-3,155c-2,103-7,161-15,170c-10,12-48,14-232,11l-220-4l-3,61l-3,61l198,7
		c109,4,202,11,207,16s8,73,7,152c-2,120-5,145-18,156c-12,8-71,12-210,12h-193v71v71l33-5c17-4,114-9,214-13c141-5,186-4,198,6
		s15,45,15,201c0,118-4,190-10,194c-13,8-112,17-522,50c-175,13-342,28-371,31C2392,4661,2382,4660,2377,4645z M5361,4104
		c4-21,23-113,43-203s36-172,36-182c0-17-9-19-106-19h-107l7,48c4,26,18,90,32,142s29,120,34,151C5318,4153,5348,4184,5361,4104z"/>
	<path class="st0" d="M7965,4514c-79-8-443-33-562-40l-123-7v-632v-632l249-8c138-4,255-4,260,0c7,4,11,81,11,221v214h38
		c62,0,72-19,93-182c20-145,40-229,62-246c7-5,119-13,249-16l237-7l6,23c4,13-3,69-15,124c-12,54-30,149-41,209
		c-34,189-46,223-105,282l-52,53l68,68c81,81,104,139,104,264c0,66-5,85-33,143c-38,77-85,113-186,144
		C8163,4508,8035,4520,7965,4514z M7923,4189c53-14,77-41,77-86c0-53-32-100-83-123c-43-20-92-26-101-12c-8,13-19,200-13,216
		C7810,4203,7866,4205,7923,4189z"/>
	<path class="st0" d="M6495,4451c-202-33-353-125-409-251c-73-161-30-332,106-425c69-48,194-97,268-105c80-9,164-34,208-60
		c66-40,27-110-62-110c-39,0-60,16-88,69l-17,31l-228-2l-228-3l3-50c5-105,117-258,223-304c178-78,522-68,696,20
		c74,37,146,110,173,175c67,154,39,326-69,427c-66,62-158,102-339,148c-161,42-202,59-202,84c0,22,34,35,93,35c49,0,60-4,98-36
		l43-36l179,4c205,3,212,6,201,82c-21,140-113,228-299,286C6767,4454,6583,4465,6495,4451z"/>
	<path class="st0" d="M3180,2974c-83-29-129-97-116-169c11-58,49-81,206-125c16-4,25-14,25-26c0-25-36-30-57-7c-14,15-30,17-98,15
		l-82-4l6-31c21-102,195-148,331-88c53,24,77,58,82,119c7,84-30,122-152,156c-43,12-80,26-82,32c-6,19,29,26,47,9
		c23-21,168-22,176-1c7,18-17,65-48,93C3372,2990,3263,3002,3180,2974z"/>
	<path class="st0" d="M4030,2936c-25-7-55-18-67-24c-35-19-64-78-70-142c-15-161,88-260,242-231c70,13,102,33,132,86
		c65,116,11,282-102,314C4116,2952,4088,2952,4030,2936z M4114,2824c12-11,16-35,16-88c0-74-9-96-42-96c-36,0-49,147-17,186
		C4086,2844,4095,2844,4114,2824z"/>
	<path class="st0" d="M5165,2935c-42-15-84-55-87-83c0-9-4,6-7,33l-6,50h-175h-175l-5-40c-4-31-7-35-11-18c-14,45-61,58-219,58h-145
		l-3-197l-2-198h85h85v66c0,57,2,65,17,62c13-2,20-17,25-51c10-70,19-77,99-77c37,0,71,5,74,10c11,18-25,157-46,175
		c-18,17-18,18,5,36c13,10,26,29,29,41c6,21,11,23,57,20l50-4l-2-136l-3-137h85h85l3,138l3,137h43c41,0,45-2,51-29
		c11-52,56-82,165-108c20-5,36-16,38-26c4-22-30-23-48-2c-9,11-33,15-86,15c-85,0-92-10-51-71c33-49,69-63,157-63
		c132,1,195,51,187,148c-6,63-32,88-127,116c-39,11-70,26-70,32s10,8,28,3c15-4,57-9,95-12l67-5v27C5430,2925,5280,2976,5165,2935z
		 M4558,2812c2-16-3-25-20-31c-26-10-38,1-38,37c0,20,4,23,28,20C4547,2836,4556,2829,4558,2812z"/>
	<path class="st0" d="M8182,2936c-84-21-125-70-138-163c-9-72,16-152,61-191c111-98,298-47,336,90c25,96-17,219-86,252
		C8307,2947,8243,2951,8182,2936z M8277,2810c39-78-16-226-57-151c-13,26-13,137,1,162C8234,2847,8261,2842,8277,2810z"/>
	<path class="st0" d="M3528,2934c-16-5-18-23-18-200v-195l83,3l82,3l3,63l3,62h45c24,0,60,6,79,14c93,39,101,186,12,233
		c-24,12-62,17-152,19C3599,2938,3537,2937,3528,2934z M3725,2805c0-23-6-32-27-39c-35-12-41-6-32,39c6,32,10,36,33,33
		C3721,2836,3725,2830,3725,2805z"/>
	<path class="st0" d="M5655,2928c-3-8-4-97-3-198l3-185h70h70l3,85l3,85l32-85l32-85h90h90v195v195l-44,3c-88,6-91,3-92-96v-87
		l-33,90l-34,90l-91,3C5682,2940,5658,2937,5655,2928z"/>
	<path class="st0" d="M6107,2927c-9-24-7-250,3-287c21-80,95-113,222-100c130,14,144,37,153,243l7,158l-88-3l-89-3l-3-138
		c-2-125-4-138-20-135c-15,3-17,20-20,141l-3,137h-78C6135,2940,6111,2936,6107,2927z"/>
	<path class="st0" d="M6507,2934c-4-4-7-31-7-61v-53h45h45v-140v-140h85h85v140v140h45h46l-3,58l-3,57l-166,3
		C6588,2939,6511,2937,6507,2934z"/>
	<path class="st0" d="M6878,2934c-5-4-8-94-8-201v-193h85h85v66c0,57,2,65,17,62c13-2,20-17,25-52c11-77,9-76,92-76c41,0,78,5,81,10
		c11,17-25,157-45,175c-17,16-17,17,6,40c31,31,39,68,24,106c-22,52-58,63-215,67C6948,2940,6882,2938,6878,2934z M7095,2810
		c0-20-6-26-27-28c-25-3-28,0-28,28s3,31,28,28C7089,2836,7095,2830,7095,2810z"/>
	<path class="st0" d="M7287,2933c-4-3-7-93-7-200v-193h85h85v200v200h-78C7329,2940,7290,2937,7287,2933z"/>
	<path class="st0" d="M7477,2934c-4-4-7-31-7-61v-53h45h44l3-137l3-138l83-3l82-3v141v140h45h46l-3,58l-3,57l-166,3
		C7558,2939,7481,2937,7477,2934z"/>
	<path class="st0" d="M7847,2933c-4-3-7-93-7-200v-193h85h85v200v200h-78C7889,2940,7850,2937,7847,2933z"/>
	<path class="st0" d="M8485,2818c-3-68-5-157-3-198l3-75l72-3l72-3l3,83l3,83l16-35c9-19,24-57,33-83l18-48l91,3l92,3l3,175
		c1,96,0,185-3,198c-5,21-10,23-68,20l-62-3l-5-77c-3-43-8-80-11-82c-3-3-17,33-33,79l-27,85h-94h-93L8485,2818z"/>
</g>
</svg>
