<?xml version="1.0" encoding="utf-8"?>
<!-- Generator: Adobe Illustrator 24.3.0, SVG Export Plug-In . SVG Version: 6.00 Build 0)  -->
<svg version="1.1"
	 id="svg2" xmlns:cc="http://creativecommons.org/ns#" xmlns:dc="http://purl.org/dc/elements/1.1/" xmlns:inkscape="http://www.inkscape.org/namespaces/inkscape" xmlns:rdf="http://www.w3.org/1999/02/22-rdf-syntax-ns#" xmlns:sodipodi="http://sodipodi.sourceforge.net/DTD/sodipodi-0.dtd" xmlns:svg="http://www.w3.org/2000/svg"
	 xmlns="http://www.w3.org/2000/svg" xmlns:xlink="http://www.w3.org/1999/xlink" x="0px" y="0px" viewBox="0 0 30 30"
	 style="enable-background:new 0 0 30 30;" xml:space="preserve">
<style type="text/css">
	.st0{fill:#1A1A1A;stroke:#D4D4D4;stroke-miterlimit:3.8919;}
	.st1{fill:#1A1A1A;stroke:#D4D4D4;}
	.st2{fill:#1A1A1A;stroke:#D4D4D4;stroke-width:1;}
	.st3{fill:none;}
	.st4{fill:#FFFFFF;}
</style>
<sodipodi:namedview  bordercolor="#666666" borderopacity="1.0" id="base" inkscape:current-layer="layer1" inkscape:cx="15" inkscape:cy="15" inkscape:document-units="px" inkscape:pageopacity="0.0" inkscape:pageshadow="2" inkscape:window-height="1029" inkscape:window-maximized="0" inkscape:window-width="656" inkscape:window-x="0" inkscape:window-y="19" inkscape:zoom="10.2" pagecolor="#ffffff" showgrid="false">
	</sodipodi:namedview>
<path id="path16617-6-6_1_" sodipodi:cx="15.16226" sodipodi:cy="16.56851" sodipodi:rx="14.008413" sodipodi:ry="14.008413" sodipodi:type="arc" class="st0" d="
	M359.4-53.5c-0.1,17.8-27.2,17.8-27.3,0C332.2-71.4,359.3-71.4,359.4-53.5z"/>
<path id="path16623-6-2_1_" inkscape:connector-curvature="0" inkscape:transform-center-y="-5.9314904" class="st1" d="M345.8-65.4
	v11.9l0,0"/>
<path id="path16623-4-2-0_1_" inkscape:connector-curvature="0" inkscape:transform-center-x="-0.854382" class="st1" d="
	M357.7-53.5H356l0,0"/>
<path id="path16623-4-3-9-0_1_" inkscape:connector-curvature="0" inkscape:transform-center-y="1.0091015" class="st2" d="
	M345.8-41.7v-2l0,0"/>
<path id="path16623-4-3-4-1-0_1_" inkscape:connector-curvature="0" inkscape:transform-center-x="5.9315" class="st1" d="M334-53.5
	h11.9"/>
<path id="path9518-0-7_1_" inkscape:connector-curvature="0" sodipodi:nodetypes="cccccccccccccc" class="st3" d="M15.5,2.7
	L4.3,12.6h2.2v12.8h6.7v-7.6h4.7l0,7.6h6.6V12.6h2.2L15.5,2.7L15.5,2.7C15.5,2.7,15.5,2.7,15.5,2.7z"/>
<path id="path88881-8_1_" inkscape:connector-curvature="0" class="st4" d="M9.7,23.5h11.8l1.2-12.9H8.5L9.7,23.5z M17.9,7V4.7h-4.7
	V7H7.3v3.5l1.2-1.2h14.1l1.2,1.2V7H17.9z M16.7,7h-2.4V5.8h2.4V7z"/>
</svg>
