<?xml version="1.0" encoding="utf-8"?>
<!-- Generator: Adobe Illustrator 24.3.0, SVG Export Plug-In . SVG Version: 6.00 Build 0)  -->
<svg version="1.1"
	 id="svg2" xmlns:cc="http://creativecommons.org/ns#" xmlns:dc="http://purl.org/dc/elements/1.1/" xmlns:inkscape="http://www.inkscape.org/namespaces/inkscape" xmlns:rdf="http://www.w3.org/1999/02/22-rdf-syntax-ns#" xmlns:sodipodi="http://sodipodi.sourceforge.net/DTD/sodipodi-0.dtd" xmlns:svg="http://www.w3.org/2000/svg"
	 xmlns="http://www.w3.org/2000/svg" xmlns:xlink="http://www.w3.org/1999/xlink" x="0px" y="0px" viewBox="0 0 30 30"
	 style="enable-background:new 0 0 30 30;" xml:space="preserve">
<style type="text/css">
	.st0{fill:#1A1A1A;stroke:#D4D4D4;stroke-miterlimit:3.8919;}
	.st1{fill:#1A1A1A;stroke:#D4D4D4;}
	.st2{fill:#1A1A1A;stroke:#D4D4D4;stroke-width:1;}
	.st3{fill:none;}
	.st4{fill:#6610F2;}
</style>
<sodipodi:namedview  bordercolor="#666666" borderopacity="1.0" id="base" inkscape:current-layer="layer1" inkscape:cx="15.344828" inkscape:cy="14.482759" inkscape:document-units="px" inkscape:pageopacity="0.0" inkscape:pageshadow="2" inkscape:window-height="1029" inkscape:window-maximized="0" inkscape:window-width="656" inkscape:window-x="0" inkscape:window-y="19" inkscape:zoom="10.276087" pagecolor="#ffffff" showgrid="false">
	</sodipodi:namedview>
<g id="layer1" transform="translate(0,-1022.3622)" inkscape:groupmode="layer" inkscape:label="Capa 1">
	
		<path id="path16617-6-6" sodipodi:cx="15.16226" sodipodi:cy="16.56851" sodipodi:rx="14.008413" sodipodi:ry="14.008413" sodipodi:type="arc" class="st0" d="
		M358.9,969.8c0,7.5-6.1,13.6-13.6,13.6s-13.6-6.1-13.6-13.6s6.1-13.6,13.6-13.6S358.9,962.2,358.9,969.8z"/>
	<path id="path16623-6-2" inkscape:connector-curvature="0" inkscape:transform-center-y="-5.9314904" class="st1" d="M345.3,957.9
		v11.9l0,0"/>
	<path id="path16623-4-2-0" inkscape:connector-curvature="0" inkscape:transform-center-x="-0.854382" class="st1" d="M357.2,969.8
		h-1.7l0,0"/>
	<path id="path16623-4-3-9-0" inkscape:connector-curvature="0" inkscape:transform-center-y="1.0091015" class="st2" d="
		M345.3,981.6v-2l0,0"/>
	<path id="path16623-4-3-4-1-0" inkscape:connector-curvature="0" inkscape:transform-center-x="5.9315" class="st1" d="
		M333.4,969.8h11.9l0,0"/>
	<path id="path9518-0-7" inkscape:connector-curvature="0" sodipodi:nodetypes="cccccccccccccc" class="st3" d="M15,1026l-11.2,9.9
		H6v12.8h6.7v-7.6h4.7l0,7.6H24v-12.8h2.2L15,1026L15,1026C15,1026,15,1026,15,1026z"/>
	<path class="st4" d="M25.2,1045L25.2,1045l-5.2-4.4c-0.5-0.5-1.1-0.7-1.6-0.7c1.2-1.4,2-3.3,2-5.3c0-4.5-3.7-8.2-8.2-8.2
		c-4.5,0-8.2,3.7-8.2,8.2c0,4.5,3.7,8.2,8.2,8.2c2,0,3.9-0.7,5.3-2c0,0.5,0.2,1,0.7,1.6l4.4,5.2c0.8,0.8,2,0.9,2.7,0.2
		C26.1,1047,26.1,1045.8,25.2,1045z M12.3,1040.1c-3,0-5.4-2.4-5.4-5.4c0-3,2.4-5.4,5.4-5.4c3,0,5.4,2.4,5.4,5.4
		C17.7,1037.6,15.3,1040.1,12.3,1040.1z"/>
</g>
</svg>
